<svg xmlns="http://www.w3.org/2000/svg" version="1.1" viewBox="-5.0 -10.0 110.0 135.0">
  <path
    d="m32.156 14.727h10.773v-1.1484c0-3.8906 3.1758-7.0664 7.0664-7.0664s7.0664 3.1758 7.0664 7.0664v1.1484h10.773v-1.1484c0-3.8906 3.1758-7.0664 7.0664-7.0664s7.0664 3.1758 7.0664 7.0664v1.1484h4.5195c5.7109 0 10.379 4.668 10.379 10.379v58.004c0 5.7109-4.668 10.379-10.379 10.379l-72.984 0.003907c-5.7109-0.003907-10.379-4.668-10.379-10.383v-58.004c0-5.7109 4.6641-10.379 10.379-10.379h4.5156v-1.1484c0-3.8906 3.1758-7.0664 7.0664-7.0664 3.8906 0 7.0664 3.1758 7.0664 7.0664zm37.254 50.621c-1.2344 0-2.2305 1-2.2305 2.2305v12.68c0 1.2305 1 2.2305 2.2305 2.2305h13.605c1.2344 0 2.2305-1 2.2305-2.2305v-12.68c0-1.2305-1-2.2305-2.2305-2.2305zm11.375 4.4609h-9.1406v8.2148h9.1406zm-37.59-4.4609c-1.2305 0-2.2305 1-2.2305 2.2305v12.68c0 1.2305 1 2.2305 2.2305 2.2305h13.605c1.2305 0 2.2305-1 2.2305-2.2305l0.003906-12.68c0-1.2305-1-2.2305-2.2305-2.2305zm11.375 4.4609h-9.1406v8.2148h9.1406zm-11.375-26.938c-1.2305 0-2.2305 1-2.2305 2.2305v12.68c0 1.2305 1 2.2305 2.2305 2.2305h13.605c1.2305 0 2.2305-1 2.2305-2.2305l0.003906-12.68c0-1.2305-1-2.2305-2.2305-2.2305zm11.375 4.4648h-9.1406v8.2109h9.1406zm14.84-4.4648c-1.2344 0-2.2305 1-2.2305 2.2305v12.68c0 1.2305 1 2.2305 2.2305 2.2305h13.605c1.2344 0 2.2305-1 2.2305-2.2305v-12.68c0-1.2305-1-2.2305-2.2305-2.2305zm11.375 4.4648h-9.1406v8.2109h9.1406zm-63.801 18.012c-1.2305 0-2.2305 1-2.2305 2.2305v12.68c0 1.2305 1 2.2305 2.2305 2.2305h13.605c1.2305 0 2.2305-1 2.2305-2.2305v-12.68c0-1.2305-1-2.2305-2.2305-2.2305zm11.371 4.4609h-9.1406v8.2148h9.1406zm-11.371-26.938c-1.2305 0-2.2305 1-2.2305 2.2305v12.68c0 1.2305 1 2.2305 2.2305 2.2305h13.605c1.2305 0 2.2305-1 2.2305-2.2305v-12.68c0-1.2305-1-2.2305-2.2305-2.2305zm11.371 4.4648h-9.1406v8.2109h9.1406zm-10.336-28.145h-4.5195c-3.2461 0-5.9141 2.6641-5.9141 5.9141v8.3086h84.82v-8.3086c0-3.2461-2.6641-5.9141-5.9141-5.9141h-4.5117v1.1484c0 3.8906-3.1758 7.0664-7.0664 7.0664-3.8906 0-7.0664-3.1758-7.0664-7.0664v-1.1484h-10.781v1.1484c0 3.8906-3.1758 7.0664-7.0664 7.0664s-7.0664-3.1758-7.0664-7.0664v-1.1484h-10.777v1.1484c0 3.8906-3.1758 7.0664-7.0664 7.0664s-7.0664-3.1758-7.0664-7.0664v-1.1484zm7.0703-8.2148c-1.4297 0-2.6055 1.1758-2.6055 2.6055v6.7617c0 2.2734 2.7812 3.4961 4.4414 1.8359 0.47266-0.47266 0.76562-1.125 0.76562-1.8359v-6.7617c0-1.4297-1.1758-2.6055-2.6016-2.6055zm49.82 0c-1.4297 0-2.6055 1.1758-2.6055 2.6055v6.7617c0 2.2734 2.7812 3.4961 4.4414 1.8359 0.47266-0.47266 0.76562-1.125 0.76562-1.8359v-6.7617c0.003906-1.4297-1.1719-2.6055-2.6016-2.6055zm-24.91 0c-1.4297 0-2.6055 1.1758-2.6055 2.6055v6.7617c0 2.2734 2.7812 3.4961 4.4414 1.8359 0.47266-0.47266 0.76562-1.125 0.76562-1.8359v-6.7617c0-1.4297-1.1758-2.6055-2.6016-2.6055zm42.41 26.902h-84.82v45.234c0 3.2461 2.668 5.9141 5.9141 5.9141h72.992c3.2461 0 5.9141-2.668 5.9141-5.9141z"
    fill-rule="evenodd" />
</svg>