<svg xmlns="http://www.w3.org/2000/svg" version="1.1" viewBox="-5.0 -10.0 110.0 135.0">
 <path d="m17.676 71.133c1.5977 0.25781 5.5156 0.96094 8.7383 2.1406 0.42969 0.15625 0.69141 0.59375 0.64844 1.0469l-0.30469 3.2773c-0.058593 0.62109-0.65625 1.043-1.2617 0.89062l-8.6641-2.207c-0.46484-0.11719-0.78516-0.54297-0.76562-1.0234 0.039063-0.93359 0.15625-2.4531 0.48828-3.4609 0.15625-0.46875 0.63672-0.74219 1.1211-0.66406z"/>
 <path d="m91.301 73.691c-0.83594-0.14844-1.7266-0.12891-2.5352-0.36328 0.24219-4.3672 0.32031-15.383-0.12891-22.027l4.0898-1.8086c0.80859-0.35547 1.2188-1.2812 0.91016-2.1289-0.80859-2.2461-3.1992-7.5195-7.9453-8.5078-0.019531-0.007813-0.027344-0.007813-0.046875-0.007813 0 0-0.007812-0.007812-0.019531-0.007812-0.019531-0.007813-0.035156-0.007813-0.054688-0.019532h-0.019531c-5.293-1.7656-19.203-4.6289-24.672-5.7461 2.3008-4 5.7461-7.3633 9.8633-9.3711 0.34375-0.16406 0.48047-0.57422 0.31641-0.91797-0.16406-0.33594-0.57422-0.47266-0.91016-0.30859-4.5742 2.2266-8.3008 5.8984-10.719 10.309-2.7969-0.58203-11.496-2.2461-11.738-2.2812-5.1133-3.5039-12.062-5.2148-18.938-4.1172-0.36328 0.0625-0.61719 0.41016-0.5625 0.78125 0.0625 0.37109 0.41016 0.62891 0.78125 0.57422 5.6719-0.91797 11.535 0.15625 16.527 3 0.046875 0.027343 0.10156 0.054687 0.14453 0.089843-10.027 2.5078-30.992 10.867-31.336 11.172-2.5781 1.2891-6.2031 5.3281-7.9727 10.836-0.31641 0.98438 0.23437 2.043 1.2539 2.3281l4.0195 1.1172c-0.4375 8.0469-0.37109 17.363-0.31641 21.055 0.007812 1 0.69141 1.8906 1.6445 2.1641 7.5391 2.1562 34.172 8.7734 41.777 10.672-0.53906 1.1094-1.0117 2.0859-1.3633 2.832-0.16016 0.33984-0.015624 0.74609 0.32422 0.90625 0.33984 0.16016 0.74609 0.015626 0.90625-0.32422 0.44922-0.94922 1.0938-2.2812 1.832-3.7891 0.09375-0.039062 6.5234-2.5625 6.4297-2.5234l-1.0156 1.6094c-0.19922 0.31641-0.10547 0.73828 0.21094 0.94141 0.31641 0.19922 0.73828 0.10938 0.94141-0.21094l2.0039-3.1719h0.003906l2.1602-0.85156c-0.003907 0.70703-0.066407 1.418-0.13281 2.1211-0.039063 0.39844 0.27344 0.74609 0.67969 0.74609 0.34766 0 0.64453-0.26563 0.67969-0.61719 0.085938-0.89062 0.16797-1.8008 0.13672-2.7227 1.5586-0.44922 3.1055-0.92188 4.6602-1.3867-0.03125 0.14844-0.050781 0.30078-0.089844 0.44922-0.09375 0.36328 0.125 0.73828 0.49219 0.83203 0.36328 0.09375 0.73438-0.125 0.83203-0.49219 0.10156-0.40234 0.17578-0.8125 0.23047-1.2266 5.5156-1.6797 11-3.4609 16.445-5.3633 0.55469-0.19141 1.1172-0.39062 1.5898-0.75391 1.6055-1.2109 0.82812-3.0742-1.3711-3.4883zm-24.414 9.7539c0.082031 0.26172 0.14062 0.50391 0.17578 0.70703-0.09375 0.039062-0.91797 0.36719-0.82422 0.32812h-0.003906zm-0.4375-2.9961c-1.2227-0.91797-3.2031-1.2812-4.918-1.0117 0.85547-1.7422 1.6211-3.3086 2.1797-4.4844 1.8711-2.125 4.8633-1.7773 6.9062 0.039063l-3.7188 5.8828c-0.14453-0.14453-0.28516-0.30078-0.44922-0.42578zm-11.113-11.309c3.1914-1.9766 7.7578 0.95703 7.2109 5.0898-0.55078 1.1562-1.3164 2.7266-2.1797 4.4883-1.0508-1.9258-3.0898-2.7188-5.0273-2.293zm16.234 6.8945c1.207 1.6172 1.7656 3.6914 1.793 5.6484-0.09375 0.035156-5.1211 2.0117-5.0273 1.9727-0.125-0.58203-0.30859-1.1289-0.5625-1.6133zm15.742-0.41016c-0.027344 0.37109-0.24609 0.68359-0.58984 0.81641l-11.996 4.707c-0.38672-6.9141-6.3164-10.969-10.801-8.1797-0.46484-4.3672-5.0039-6.9375-8.5859-5.375l-0.003906-14.695h0.003906v0.007812c0.26953 0.17188 0.57422 0.41016 0.84375 0.62891 0.007812 0 0.007812 0 0.007812 0.007813 1.9414 1.457 4.0469 4.4531 4.8164 7.7891 0.22656 1.0273 1.3633 1.582 2.3359 1.1562l23.965-10.602c0.4375 7.0547 0.3125 16.707 0.003906 23.738zm5.043-27.809c0.0625 0.17188-0.007813 0.35547-0.17188 0.41797l-0.007813 0.007813c-31.312 13.801-29.406 13.125-29.672 12.992-0.0625-0.027344-0.13672-0.089844-0.16406-0.21094-1.1367-4.8984-4.1172-7.6992-5.7617-8.9258 2.9492-1.2148-10.684 4.3945 28.844-11.863 0.027344 0.007813 0.054687 0 0.082031 0 0.03125 0.015625 0.097656 0.011719 0.12891 0 0.085938 0.085937 4.1602 0.53906 6.7227 7.582zm-8.9609-8.2266c-0.09375 0.039062-5.3594 2.1992-5.0273 2.0625-5.1211 2.1094 12.656-5.2109-23.426 9.6445-0.074218-0.011719-0.79297-0.15234-1.0469-0.19141-0.007812-0.007813-0.019531-0.019531-0.027343-0.019531-0.089844-0.054688-0.18359-0.10938-0.27344-0.15625-0.007812 0-0.007812-0.007813-0.019531 0-0.26953-0.13672-0.003907-0.03125-5.6016-1.3633v-17.227c4.0898 3.0234 6.6484 6.6641 8.5195 11.102 0.26172 0.6875 1.2773 0.51562 1.3164-0.21094 0.20703-3.0859 0.93359-5.9688 2.4102-8.9102 1.4297 0.32422 16.25 3.2383 23.176 5.2695zm-24.602-5.543c-0.99219 2.0742-1.6992 4.2891-2.0742 6.582-1.6094-3.1641-3.8359-5.9805-6.5352-8.2656 2.3203 0.42578 6.9453 1.3516 8.6094 1.6836zm-12.184-2.0469v17.246c-40.227-9.5117 11.523 2.7227-29.48-6.9727 7.4023-2.9727 21.703-8.4336 29.48-10.273zm-38.926 21.617c-0.0625-0.10938-0.074219-0.23828-0.035156-0.36328 0.66406-2.0625 2.6914-7.1719 7.1992-9.9922 0-0.007813 0.019532-0.007813 0.027344-0.019531 0.007812-0.007813 0.027344-0.007813 0.035156-0.007813 0.007813-0.007813 0.019532-0.007813 0.019532-0.007813 0.027343-0.007812 0.046874-0.019531 0.0625-0.007812 0.16406-0.046875-1.8594-0.47266 32.129 7.5547 5.4492 1.3047 5.875 1.3672 5.9375 1.4258h0.007812c0.16797 0.082031 0.31641 0.32812 0.13672 0.69141-0.015625 0.007813-0.89453 0.94141-1.3281 1.4375 0 0 0 0.007813-0.007812 0.007813-2.3477 2.6914-4.8477 6.2422-5.9102 9.6367-0.074219 0.24609-0.32812 0.38281-0.5625 0.31641l-32.891-9.1719c-4.6172-1.3398-4.6758-1.1836-4.8203-1.5zm47.074 35.184c-5.4805-1.3633-34.711-8.6836-41.438-10.609-0.38281-0.10938-0.65625-0.46484-0.65625-0.87109-0.054687-3.6289-0.11719-12.719 0.30078-20.656 31.848 8.7578 32.469 9.2578 32.91 8.9648 0.54688-0.070312 1.1367-0.52344 1.3828-1.2383 1.2305-3.7812 3.9883-7.4453 6.7148-10.324v28.312c0 0.375 0.30469 0.68359 0.68359 0.68359 0.375 0 0.68359-0.30469 0.68359-0.68359v-4.5391c1.8906-0.61719 3.8789 0.55859 4.1875 2.5859-1.3984 2.8359-2.8438 5.7578-4.0859 8.293-0.097656 0.023438-0.35547 0.17969-0.68359 0.082031zm5.9688-7.7305c1.4961-0.62891 4.2148-0.48828 5.4297 0.98438l-2.0664 3.2695c-0.18359 0.074219-6.8594 2.6875-6.7695 2.6523 1.1172-2.2695 2.2578-4.5742 3.4062-6.9062z"/>
 <path d="m84.629 70.574h0.015625c0.375-0.007813 0.67188-0.32422 0.66406-0.69922l-0.32031-13.047c-0.011719-0.375-0.33984-0.67578-0.69922-0.66406-0.375 0.007813-0.67187 0.32422-0.66406 0.69922l0.32031 13.047c0.011719 0.37109 0.3125 0.66406 0.68359 0.66406z"/>
 <path d="m84.672 71.781c-0.375 0-0.68359 0.30469-0.68359 0.68359v1.2812c0 0.375 0.30469 0.68359 0.68359 0.68359 0.375 0 0.68359-0.30469 0.68359-0.68359v-1.2812c-0.003907-0.37891-0.30859-0.68359-0.68359-0.68359z"/>
 <path d="m73.84 16.172c-1.2852 0.84766-2.375 2.0625-0.90625 3.3711 0.75 0.66797 1.8594 0.65234 2.8477 0.4375-0.007812 1.6719 0.62891 4.9688 2.2852 5.1836 0.81641 0.10547 1.7344-0.54687 1.9062-1.9414 0.21094-1.6953-0.69141-3.2344-1.5703-4.5703 0.48047-0.43359 0.90625-0.94141 0.97656-1.5898 0.125-1.1367-1.0039-2.4453-2.9023-2.0938-0.92578-1.543-3.4375-4.2305-4.9648-3.2969-0.6875 0.41797-0.78125 1.4336-0.41797 2.1523 0.55078 1.0859 1.8125 1.582 2.7461 2.3477z"/>
 <path d="m37.188 14.125c-0.6875 1.668-1.3477 5.2812 0.3125 5.9531 0.74609 0.30078 1.6172-0.22656 1.9766-0.94531 0.54688-1.0977 0.19531-2.4023 0.25-3.6094 1.4453 0.52734 3.0703 0.67969 3.2461-1.2812 0.089844-1.0039-0.58984-1.8828-1.3438-2.5469 1.3477-0.98828 3.6133-3.4648 2.7969-4.9258-0.63281-1.1328-2.9219-1.2422-4.5273 1.5625-0.37109 0.64844-0.64453 1.3477-0.89844 2.0508-0.64062-0.12891-1.2969-0.16406-1.8594 0.16406-0.75 0.4375-1.0391 1.4531-0.79688 2.2891 0.14453 0.5 0.45703 0.92969 0.84375 1.2891z"/>
<text x="0.0" y="117.5" font-size="5.0" font-weight="bold" font-family="Arbeit Regular, Helvetica, Arial-Unicode, Arial, Sans-serif" fill="#000000">Created by Vectors Market</text><text x="0.0" y="122.5" font-size="5.0" font-weight="bold" font-family="Arbeit Regular, Helvetica, Arial-Unicode, Arial, Sans-serif" fill="#000000">from Noun Project</text></svg>