<svg xmlns="http://www.w3.org/2000/svg" xmlns:xlink="http://www.w3.org/1999/xlink" version="1.1"
  x="0px" y="0px" viewBox="0 0 96 120" style="enable-background:new 0 0 96 96;" xml:space="preserve">
  <path d="M79.9,49l4.9,5.1L82,56.9l-4.9-5.1c-3.2,2.8-6.9,5.2-10.8,7l2.6,6.6l-3.7,1.5l-2.6-6.5c-4,1.4-8.3,2.2-12.6,2.4v7.1h-4v-7.1  c-4.4-0.2-8.6-1-12.6-2.4l-2.6,6.5L27,65.3l2.6-6.6c-3.9-1.8-7.5-4.1-10.8-7L14,56.9l-2.9-2.8l4.9-5.1c-2.5-2.6-4.7-5.6-6.5-8.9  l3.5-1.9c7.1,12.7,20.5,20.6,35,20.6s27.9-7.9,35-20.6l3.5,1.9C84.7,43.4,82.5,46.4,79.9,49z"/>
  </svg>