<?xml version="1.0" encoding="utf-8"?>
<!-- Uploaded to: SVG Repo, www.svgrepo.com, Generator: SVG Repo Mixer Tools -->
<svg xmlns="http://www.w3.org/2000/svg"
aria-label="Google Meet" role="img"
viewBox="0 0 512 512">
  <path d="M166 106v90h-90"/>
  <path d="M166 106v90h120v62l90-73v-49q0-30-30-30"/>
  <path d="M164 406v-90h122v-60l90 71v49q0 30-30 30"/>
  <path d="M286 256l90-73v146"/>
  <path d="M376 183l42-34c9-7 18-7 18 7v200c0 14-9 14-18 7l-42-34"/>
  <path d="M76 314v62q0 30 30 30h60v-92"/>
  <path d="M76 196h90v120h-90"/>
</svg>
